<svg width="63" height="63" viewBox="0 0 63 63" fill="none" xmlns="http://www.w3.org/2000/svg">
<g clip-path="url(#clip0_26_2)">
<path d="M29.9069 0.0136391C-8.68755 1.23567 -6.17727 62.9728 26.8388 62.245C26.9662 62.2936 27.062 62.3766 27.206 62.4058C44.3421 65.8745 61.0697 53.7906 61.473 35.7463C61.8664 18.1603 48.5856 -0.57763 29.9069 0.0136391ZM28.0147 57.0181C18.328 54.2418 10.1651 48.6217 7.40591 38.046C3.74113 23.9964 12.2738 8.13166 27.2643 6.33656C41.6713 4.61135 51.6355 15.67 54.639 29.0228C58.5343 46.339 44.634 58.7736 28.0147 57.0181Z" fill="#F0F7EE"/>
<path d="M42.5546 16.8449C36.2308 19.4794 27.2567 21.3027 22.7333 26.8847C18.5257 32.0759 18.056 39.2554 14.1745 44.6661C13.0438 46.2414 14.8528 47.7217 16.3676 47.3235C16.8657 47.5411 17.4706 47.5696 18.0936 47.2814C23.88 44.6052 31.3524 42.4346 35.7438 37.5615C40.0466 32.786 42.1789 25.5527 44.8288 19.8027C45.4606 18.4306 44.3587 16.093 42.5546 16.8449ZM30.5747 34.0541C29.2805 34.7252 27.2626 34.241 26.8137 32.7333C26.3901 31.3096 27.3534 30.2885 28.1296 29.256C29.3973 29.3615 30.756 28.8871 31.7267 30.0728C32.765 31.34 31.8943 33.3697 30.5747 34.0541Z" fill="#F0F7EE"/>
</g>
<defs>
<clipPath id="clip0_26_2">
<rect width="63" height="63" fill="white"/>
</clipPath>
</defs>
</svg>
