<svg width="195" height="29" viewBox="0 0 195 29" fill="none" xmlns="http://www.w3.org/2000/svg">
<path d="M7.85 23.3C5.55 23.3 3.72 22.66 2.36 21.38C1.02 20.1 0.31 18.24 0.23 15.8C0.23 15.64 0.23 15.43 0.23 15.17C0.23 14.89 0.23 14.67 0.23 14.51C0.31 12.97 0.66 11.65 1.28 10.55C1.9 9.43 2.77 8.58 3.89 8C5.01 7.4 6.32 7.1 7.82 7.1C9.5 7.1 10.9 7.45 12.02 8.15C13.16 8.83 14.01 9.77 14.57 10.97C15.15 12.15 15.44 13.51 15.44 15.05V15.74C15.44 15.94 15.36 16.11 15.2 16.25C15.06 16.39 14.89 16.46 14.69 16.46H4.88C4.88 16.48 4.88 16.52 4.88 16.58C4.88 16.62 4.88 16.66 4.88 16.7C4.9 17.34 5.02 17.93 5.24 18.47C5.48 18.99 5.81 19.41 6.23 19.73C6.67 20.05 7.19 20.21 7.79 20.21C8.29 20.21 8.7 20.14 9.02 20C9.34 19.86 9.6 19.69 9.8 19.49C10.02 19.29 10.18 19.12 10.28 18.98C10.46 18.78 10.6 18.66 10.7 18.62C10.82 18.56 11 18.53 11.24 18.53H14.36C14.56 18.53 14.72 18.59 14.84 18.71C14.98 18.81 15.04 18.96 15.02 19.16C15 19.48 14.83 19.88 14.51 20.36C14.21 20.82 13.76 21.28 13.16 21.74C12.56 22.18 11.81 22.55 10.91 22.85C10.03 23.15 9.01 23.3 7.85 23.3ZM4.88 13.73H10.76V13.67C10.76 12.95 10.64 12.33 10.4 11.81C10.18 11.27 9.85 10.85 9.41 10.55C8.97 10.25 8.44 10.1 7.82 10.1C7.2 10.1 6.67 10.25 6.23 10.55C5.79 10.85 5.45 11.27 5.21 11.81C4.99 12.33 4.88 12.95 4.88 13.67V13.73ZM19.0688 15.92C18.8688 15.92 18.6988 15.85 18.5588 15.71C18.4188 15.57 18.3488 15.4 18.3488 15.2V12.8C18.3488 12.6 18.4188 12.43 18.5588 12.29C18.6988 12.15 18.8688 12.08 19.0688 12.08H28.3988C28.5988 12.08 28.7688 12.15 28.9088 12.29C29.0488 12.43 29.1188 12.6 29.1188 12.8V15.2C29.1188 15.4 29.0488 15.57 28.9088 15.71C28.7688 15.85 28.5988 15.92 28.3988 15.92H19.0688ZM40.362 23.3C38.442 23.3 36.832 23.02 35.532 22.46C34.252 21.9 33.282 21.17 32.622 20.27C31.962 19.37 31.612 18.41 31.572 17.39C31.572 17.23 31.632 17.09 31.752 16.97C31.872 16.83 32.022 16.76 32.202 16.76H35.412C35.672 16.76 35.872 16.82 36.012 16.94C36.152 17.04 36.282 17.17 36.402 17.33C36.542 17.67 36.762 18 37.062 18.32C37.382 18.64 37.812 18.91 38.352 19.13C38.892 19.33 39.562 19.43 40.362 19.43C41.662 19.43 42.632 19.22 43.272 18.8C43.932 18.38 44.262 17.81 44.262 17.09C44.262 16.57 44.082 16.15 43.722 15.83C43.382 15.51 42.832 15.22 42.072 14.96C41.332 14.7 40.342 14.42 39.102 14.12C37.602 13.8 36.322 13.39 35.262 12.89C34.222 12.37 33.432 11.71 32.892 10.91C32.372 10.09 32.112 9.08 32.112 7.88C32.112 6.68 32.442 5.62 33.102 4.7C33.762 3.76 34.692 3.03 35.892 2.51C37.092 1.97 38.522 1.7 40.182 1.7C41.522 1.7 42.702 1.88 43.722 2.24C44.762 2.6 45.622 3.07 46.302 3.65C47.002 4.23 47.532 4.85 47.892 5.51C48.252 6.17 48.442 6.81 48.462 7.43C48.462 7.59 48.402 7.74 48.282 7.88C48.162 8 48.012 8.06 47.832 8.06H44.472C44.272 8.06 44.092 8.02 43.932 7.94C43.772 7.86 43.642 7.72 43.542 7.52C43.422 7 43.062 6.55 42.462 6.17C41.882 5.77 41.122 5.57 40.182 5.57C39.202 5.57 38.422 5.75 37.842 6.11C37.282 6.47 37.002 7.02 37.002 7.76C37.002 8.24 37.142 8.65 37.422 8.99C37.722 9.31 38.212 9.6 38.892 9.86C39.592 10.1 40.512 10.37 41.652 10.67C43.412 11.03 44.842 11.46 45.942 11.96C47.042 12.46 47.852 13.11 48.372 13.91C48.892 14.69 49.152 15.68 49.152 16.88C49.152 18.22 48.772 19.37 48.012 20.33C47.272 21.29 46.242 22.03 44.922 22.55C43.622 23.05 42.102 23.3 40.362 23.3ZM52.7923 28.7C52.5723 28.7 52.3923 28.63 52.2523 28.49C52.1123 28.35 52.0423 28.17 52.0423 27.95V8.15C52.0423 7.93 52.1123 7.75 52.2523 7.61C52.3923 7.47 52.5723 7.4 52.7923 7.4H55.6423C55.8623 7.4 56.0423 7.47 56.1823 7.61C56.3223 7.75 56.3923 7.93 56.3923 8.15V9.29C56.8723 8.65 57.4923 8.13 58.2523 7.73C59.0123 7.31 59.9623 7.1 61.1023 7.1C62.1423 7.1 63.0423 7.27 63.8023 7.61C64.5823 7.93 65.2323 8.4 65.7523 9.02C66.2923 9.62 66.7023 10.35 66.9823 11.21C67.2823 12.07 67.4523 13.04 67.4923 14.12C67.5123 14.5 67.5223 14.86 67.5223 15.2C67.5223 15.54 67.5123 15.91 67.4923 16.31C67.4723 17.33 67.3123 18.27 67.0123 19.13C66.7323 19.99 66.3223 20.73 65.7823 21.35C65.2423 21.97 64.5823 22.45 63.8023 22.79C63.0423 23.13 62.1423 23.3 61.1023 23.3C60.0823 23.3 59.1923 23.12 58.4323 22.76C57.6923 22.38 57.0823 21.87 56.6023 21.23V27.95C56.6023 28.17 56.5323 28.35 56.3923 28.49C56.2523 28.63 56.0823 28.7 55.8823 28.7H52.7923ZM59.7523 19.7C60.5123 19.7 61.1123 19.54 61.5523 19.22C61.9923 18.88 62.3023 18.44 62.4823 17.9C62.6823 17.36 62.8023 16.77 62.8423 16.13C62.8823 15.51 62.8823 14.89 62.8423 14.27C62.8023 13.63 62.6823 13.04 62.4823 12.5C62.3023 11.96 61.9923 11.53 61.5523 11.21C61.1123 10.87 60.5123 10.7 59.7523 10.7C59.0123 10.7 58.4123 10.87 57.9523 11.21C57.4923 11.55 57.1623 11.98 56.9623 12.5C56.7623 13.02 56.6423 13.58 56.6023 14.18C56.5823 14.54 56.5723 14.91 56.5723 15.29C56.5723 15.67 56.5823 16.05 56.6023 16.43C56.6223 16.99 56.7423 17.52 56.9623 18.02C57.2023 18.5 57.5423 18.9 57.9823 19.22C58.4423 19.54 59.0323 19.7 59.7523 19.7ZM77.8445 23.3C76.1845 23.3 74.7945 23.03 73.6745 22.49C72.5545 21.93 71.6945 21.14 71.0945 20.12C70.5145 19.1 70.1945 17.91 70.1345 16.55C70.1145 16.15 70.1045 15.7 70.1045 15.2C70.1045 14.68 70.1145 14.23 70.1345 13.85C70.1945 12.47 70.5345 11.28 71.1545 10.28C71.7745 9.26 72.6445 8.48 73.7645 7.94C74.8845 7.38 76.2445 7.1 77.8445 7.1C79.4245 7.1 80.7745 7.38 81.8945 7.94C83.0145 8.48 83.8845 9.26 84.5045 10.28C85.1245 11.28 85.4645 12.47 85.5245 13.85C85.5645 14.23 85.5845 14.68 85.5845 15.2C85.5845 15.7 85.5645 16.15 85.5245 16.55C85.4645 17.91 85.1345 19.1 84.5345 20.12C83.9545 21.14 83.1045 21.93 81.9845 22.49C80.8645 23.03 79.4845 23.3 77.8445 23.3ZM77.8445 20C78.8245 20 79.5645 19.7 80.0645 19.1C80.5645 18.48 80.8345 17.58 80.8745 16.4C80.8945 16.1 80.9045 15.7 80.9045 15.2C80.9045 14.7 80.8945 14.3 80.8745 14C80.8345 12.84 80.5645 11.95 80.0645 11.33C79.5645 10.71 78.8245 10.4 77.8445 10.4C76.8645 10.4 76.1145 10.71 75.5945 11.33C75.0945 11.95 74.8245 12.84 74.7845 14C74.7645 14.3 74.7545 14.7 74.7545 15.2C74.7545 15.7 74.7645 16.1 74.7845 16.4C74.8245 17.58 75.0945 18.48 75.5945 19.1C76.1145 19.7 76.8645 20 77.8445 20ZM96.1341 23C94.8941 23 93.8341 22.8 92.9541 22.4C92.0741 21.98 91.4041 21.34 90.9441 20.48C90.5041 19.62 90.2841 18.54 90.2841 17.24V10.94H87.9441C87.7241 10.94 87.5441 10.87 87.4041 10.73C87.2641 10.59 87.1941 10.41 87.1941 10.19V8.15C87.1941 7.93 87.2641 7.75 87.4041 7.61C87.5441 7.47 87.7241 7.4 87.9441 7.4H90.2841V2.45C90.2841 2.23 90.3541 2.05 90.4941 1.91C90.6541 1.77 90.8341 1.7 91.0341 1.7H93.9741C94.1941 1.7 94.3741 1.77 94.5141 1.91C94.6541 2.05 94.7241 2.23 94.7241 2.45V7.4H98.4741C98.6741 7.4 98.8441 7.47 98.9841 7.61C99.1241 7.75 99.1941 7.93 99.1941 8.15V10.19C99.1941 10.41 99.1241 10.59 98.9841 10.73C98.8441 10.87 98.6741 10.94 98.4741 10.94H94.7241V16.88C94.7241 17.64 94.8541 18.24 95.1141 18.68C95.3941 19.1 95.8741 19.31 96.5541 19.31H98.7441C98.9441 19.31 99.1141 19.38 99.2541 19.52C99.3941 19.66 99.4641 19.83 99.4641 20.03V22.25C99.4641 22.47 99.3941 22.65 99.2541 22.79C99.1141 22.93 98.9441 23 98.7441 23H96.1341ZM102.801 23C102.601 23 102.431 22.93 102.291 22.79C102.151 22.65 102.081 22.47 102.081 22.25V8.15C102.081 7.95 102.151 7.78 102.291 7.64C102.431 7.48 102.601 7.4 102.801 7.4H105.741C105.941 7.4 106.111 7.48 106.251 7.64C106.411 7.78 106.491 7.95 106.491 8.15V9.35C106.991 8.73 107.601 8.25 108.321 7.91C109.061 7.57 109.911 7.4 110.871 7.4H112.161C112.361 7.4 112.531 7.47 112.671 7.61C112.811 7.75 112.881 7.93 112.881 8.15V10.73C112.881 10.95 112.811 11.13 112.671 11.27C112.531 11.41 112.361 11.48 112.161 11.48H109.521C108.641 11.48 107.951 11.73 107.451 12.23C106.951 12.71 106.701 13.4 106.701 14.3V22.25C106.701 22.47 106.631 22.65 106.491 22.79C106.351 22.93 106.171 23 105.951 23H102.801ZM106.251 5.15C106.051 5.15 105.871 5.12 105.711 5.06C105.571 4.98 105.401 4.84 105.201 4.64L102.201 1.52C102.041 1.36 101.961 1.2 101.961 1.04C101.961 0.759998 102.111 0.619998 102.411 0.619998H103.671C103.831 0.619998 104.001 0.639999 104.181 0.679999C104.361 0.699999 104.521 0.749999 104.661 0.829999L107.241 2.36L109.821 0.829999C109.961 0.749999 110.121 0.699999 110.301 0.679999C110.481 0.639999 110.651 0.619998 110.811 0.619998H112.071C112.371 0.619998 112.521 0.759998 112.521 1.04C112.521 1.2 112.431 1.36 112.251 1.52L109.251 4.64C109.051 4.84 108.871 4.98 108.711 5.06C108.571 5.12 108.411 5.15 108.231 5.15H106.251ZM121.903 23.3C119.603 23.3 117.773 22.66 116.413 21.38C115.073 20.1 114.363 18.24 114.283 15.8C114.283 15.64 114.283 15.43 114.283 15.17C114.283 14.89 114.283 14.67 114.283 14.51C114.363 12.97 114.713 11.65 115.333 10.55C115.953 9.43 116.823 8.58 117.943 8C119.063 7.4 120.373 7.1 121.873 7.1C123.553 7.1 124.953 7.45 126.073 8.15C127.213 8.83 128.063 9.77 128.623 10.97C129.203 12.15 129.493 13.51 129.493 15.05V15.74C129.493 15.94 129.413 16.11 129.253 16.25C129.113 16.39 128.943 16.46 128.743 16.46H118.933C118.933 16.48 118.933 16.52 118.933 16.58C118.933 16.62 118.933 16.66 118.933 16.7C118.953 17.34 119.073 17.93 119.293 18.47C119.533 18.99 119.863 19.41 120.283 19.73C120.723 20.05 121.243 20.21 121.843 20.21C122.343 20.21 122.753 20.14 123.073 20C123.393 19.86 123.653 19.69 123.853 19.49C124.073 19.29 124.233 19.12 124.333 18.98C124.513 18.78 124.653 18.66 124.753 18.62C124.873 18.56 125.053 18.53 125.293 18.53H128.413C128.613 18.53 128.773 18.59 128.893 18.71C129.033 18.81 129.093 18.96 129.073 19.16C129.053 19.48 128.883 19.88 128.563 20.36C128.263 20.82 127.813 21.28 127.213 21.74C126.613 22.18 125.863 22.55 124.963 22.85C124.083 23.15 123.063 23.3 121.903 23.3ZM118.933 13.73H124.813V13.67C124.813 12.95 124.693 12.33 124.453 11.81C124.233 11.27 123.903 10.85 123.463 10.55C123.023 10.25 122.493 10.1 121.873 10.1C121.253 10.1 120.723 10.25 120.283 10.55C119.843 10.85 119.503 11.27 119.263 11.81C119.043 12.33 118.933 12.95 118.933 13.67V13.73ZM141.552 23.3C140.412 23.3 139.462 23.11 138.702 22.73C137.942 22.33 137.322 21.83 136.842 21.23V22.25C136.842 22.47 136.772 22.65 136.632 22.79C136.492 22.93 136.312 23 136.092 23H133.242C133.022 23 132.842 22.93 132.702 22.79C132.562 22.65 132.492 22.47 132.492 22.25V2.45C132.492 2.23 132.562 2.05 132.702 1.91C132.842 1.77 133.022 1.7 133.242 1.7H136.332C136.532 1.7 136.702 1.77 136.842 1.91C136.982 2.05 137.052 2.23 137.052 2.45V8.99C137.552 8.43 138.172 7.98 138.912 7.64C139.652 7.28 140.532 7.1 141.552 7.1C142.592 7.1 143.492 7.28 144.252 7.64C145.032 7.98 145.692 8.47 146.232 9.11C146.772 9.73 147.182 10.47 147.462 11.33C147.762 12.19 147.922 13.14 147.942 14.18C147.962 14.54 147.972 14.88 147.972 15.2C147.972 15.5 147.962 15.84 147.942 16.22C147.902 17.28 147.732 18.25 147.432 19.13C147.152 19.99 146.742 20.74 146.202 21.38C145.682 22 145.032 22.48 144.252 22.82C143.492 23.14 142.592 23.3 141.552 23.3ZM140.202 19.7C140.962 19.7 141.562 19.54 142.002 19.22C142.442 18.88 142.752 18.44 142.932 17.9C143.132 17.36 143.252 16.77 143.292 16.13C143.332 15.51 143.332 14.89 143.292 14.27C143.252 13.63 143.132 13.04 142.932 12.5C142.752 11.96 142.442 11.53 142.002 11.21C141.562 10.87 140.962 10.7 140.202 10.7C139.482 10.7 138.892 10.86 138.432 11.18C137.992 11.5 137.652 11.91 137.412 12.41C137.192 12.89 137.072 13.41 137.052 13.97C137.032 14.33 137.022 14.7 137.022 15.08C137.022 15.46 137.032 15.84 137.052 16.22C137.092 16.82 137.212 17.38 137.412 17.9C137.612 18.42 137.942 18.85 138.402 19.19C138.862 19.53 139.462 19.7 140.202 19.7ZM151.874 23C151.674 23 151.504 22.93 151.364 22.79C151.224 22.65 151.154 22.47 151.154 22.25V8.15C151.154 7.93 151.224 7.75 151.364 7.61C151.504 7.47 151.674 7.4 151.874 7.4H154.874C155.094 7.4 155.274 7.47 155.414 7.61C155.554 7.75 155.624 7.93 155.624 8.15V22.25C155.624 22.47 155.554 22.65 155.414 22.79C155.274 22.93 155.094 23 154.874 23H151.874ZM151.784 5C151.584 5 151.414 4.93 151.274 4.79C151.134 4.65 151.064 4.47 151.064 4.25V1.85C151.064 1.63 151.134 1.45 151.274 1.31C151.414 1.15 151.584 1.07 151.784 1.07H154.934C155.154 1.07 155.334 1.15 155.474 1.31C155.634 1.45 155.714 1.63 155.714 1.85V4.25C155.714 4.47 155.634 4.65 155.474 4.79C155.334 4.93 155.154 5 154.934 5H151.784ZM166.886 23C165.646 23 164.586 22.8 163.706 22.4C162.826 21.98 162.156 21.34 161.696 20.48C161.256 19.62 161.036 18.54 161.036 17.24V10.94H158.696C158.476 10.94 158.296 10.87 158.156 10.73C158.016 10.59 157.946 10.41 157.946 10.19V8.15C157.946 7.93 158.016 7.75 158.156 7.61C158.296 7.47 158.476 7.4 158.696 7.4H161.036V2.45C161.036 2.23 161.106 2.05 161.246 1.91C161.406 1.77 161.586 1.7 161.786 1.7H164.726C164.946 1.7 165.126 1.77 165.266 1.91C165.406 2.05 165.476 2.23 165.476 2.45V7.4H169.226C169.426 7.4 169.596 7.47 169.736 7.61C169.876 7.75 169.946 7.93 169.946 8.15V10.19C169.946 10.41 169.876 10.59 169.736 10.73C169.596 10.87 169.426 10.94 169.226 10.94H165.476V16.88C165.476 17.64 165.606 18.24 165.866 18.68C166.146 19.1 166.626 19.31 167.306 19.31H169.496C169.696 19.31 169.866 19.38 170.006 19.52C170.146 19.66 170.216 19.83 170.216 20.03V22.25C170.216 22.47 170.146 22.65 170.006 22.79C169.866 22.93 169.696 23 169.496 23H166.886ZM179.793 23.3C177.493 23.3 175.663 22.66 174.303 21.38C172.963 20.1 172.253 18.24 172.173 15.8C172.173 15.64 172.173 15.43 172.173 15.17C172.173 14.89 172.173 14.67 172.173 14.51C172.253 12.97 172.603 11.65 173.223 10.55C173.843 9.43 174.713 8.58 175.833 8C176.953 7.4 178.263 7.1 179.763 7.1C181.443 7.1 182.843 7.45 183.963 8.15C185.103 8.83 185.953 9.77 186.513 10.97C187.093 12.15 187.383 13.51 187.383 15.05V15.74C187.383 15.94 187.303 16.11 187.143 16.25C187.003 16.39 186.833 16.46 186.633 16.46H176.823C176.823 16.48 176.823 16.52 176.823 16.58C176.823 16.62 176.823 16.66 176.823 16.7C176.843 17.34 176.963 17.93 177.183 18.47C177.423 18.99 177.753 19.41 178.173 19.73C178.613 20.05 179.133 20.21 179.733 20.21C180.233 20.21 180.643 20.14 180.963 20C181.283 19.86 181.543 19.69 181.743 19.49C181.963 19.29 182.123 19.12 182.223 18.98C182.403 18.78 182.543 18.66 182.643 18.62C182.763 18.56 182.943 18.53 183.183 18.53H186.303C186.503 18.53 186.663 18.59 186.783 18.71C186.923 18.81 186.983 18.96 186.963 19.16C186.943 19.48 186.773 19.88 186.453 20.36C186.153 20.82 185.703 21.28 185.103 21.74C184.503 22.18 183.753 22.55 182.853 22.85C181.973 23.15 180.953 23.3 179.793 23.3ZM176.823 13.73H182.703V13.67C182.703 12.95 182.583 12.33 182.343 11.81C182.123 11.27 181.793 10.85 181.353 10.55C180.913 10.25 180.383 10.1 179.763 10.1C179.143 10.1 178.613 10.25 178.173 10.55C177.733 10.85 177.393 11.27 177.153 11.81C176.933 12.33 176.823 12.95 176.823 13.67V13.73ZM191.132 23C190.912 23 190.732 22.93 190.592 22.79C190.452 22.65 190.382 22.47 190.382 22.25V2.45C190.382 2.23 190.452 2.05 190.592 1.91C190.732 1.77 190.912 1.7 191.132 1.7H194.132C194.332 1.7 194.502 1.77 194.642 1.91C194.782 2.05 194.852 2.23 194.852 2.45V22.25C194.852 22.47 194.782 22.65 194.642 22.79C194.502 22.93 194.332 23 194.132 23H191.132Z" fill="#F0F7EE"/>
</svg>
