<svg width="136" height="128" viewBox="0 0 136 128" fill="none" xmlns="http://www.w3.org/2000/svg">
<g opacity="0.1" clip-path="url(#clip0_121_124)">
<path d="M130.333 66.6667L107.667 15.2C95.0398 10.4844 81.5845 8.04208 68 8C54.4155 8.04208 40.9602 10.4844 28.3333 15.2L5.66667 66.6667V72C5.66667 77.658 8.05476 83.0842 12.3056 87.0849C16.5564 91.0857 22.3218 93.3333 28.3333 93.3333C34.3449 93.3333 40.1103 91.0857 44.3611 87.0849C48.6119 83.0842 51 77.658 51 72V66.6667L32.8667 26.6667L33.7167 24.5333C42.9011 21.3196 52.549 19.4315 62.3333 18.9333V109.333H42.5C40.9971 109.333 39.5558 109.895 38.4931 110.895C37.4304 111.896 36.8333 113.252 36.8333 114.667C36.8333 116.081 37.4304 117.438 38.4931 118.438C39.5558 119.438 40.9971 120 42.5 120H93.5C95.0029 120 96.4442 119.438 97.5069 118.438C98.5696 117.438 99.1667 116.081 99.1667 114.667C99.1667 113.252 98.5696 111.896 97.5069 110.895C96.4442 109.895 95.0029 109.333 93.5 109.333H73.6667V18.9333C83.451 19.4315 93.0989 21.3196 102.283 24.5333L103.133 26.6667L85 66.6667V72C85 77.658 87.3881 83.0842 91.6389 87.0849C95.8897 91.0857 101.655 93.3333 107.667 93.3333C113.678 93.3333 119.444 91.0857 123.694 87.0849C127.945 83.0842 130.333 77.658 130.333 72V66.6667ZM28.3333 82.6667C26.3267 82.6836 24.3513 82.1987 22.609 81.2617C20.8667 80.3246 19.4199 78.969 18.4167 77.3333H38.25C37.2467 78.969 35.8 80.3246 34.0577 81.2617C32.3154 82.1987 30.34 82.6836 28.3333 82.6667ZM40.2333 66.6667H14.7333L28.3333 38.1333L40.2333 66.6667ZM107.667 38.1333L119.567 66.6667H94.0667L107.667 38.1333ZM107.667 82.6667C105.66 82.6836 103.685 82.1987 101.942 81.2617C100.2 80.3246 98.7533 78.969 97.75 77.3333H117.583C116.58 78.969 115.133 80.3246 113.391 81.2617C111.649 82.1987 109.673 82.6836 107.667 82.6667Z" fill="black"/>
</g>
<defs>
<clipPath id="clip0_121_124">
<rect width="136" height="128" fill="white"/>
</clipPath>
</defs>
</svg>
